<svg xmlns="http://www.w3.org/2000/svg" width="1920" height="1080"><path d="M996,582L936,653L1045,732Z" fill="#668c89" stroke="#668c89" stroke-width="1.51"/><path d="M936,653L937,679L1045,732Z" fill="#658c89" stroke="#658c89" stroke-width="1.51"/><path d="M1045,732L1127,702L996,582Z" fill="#597875" stroke="#597875" stroke-width="1.51"/><path d="M1127,702L1124,569L996,582Z" fill="#638784" stroke="#638784" stroke-width="1.51"/><path d="M937,679L977,818L1045,732Z" fill="#659894" stroke="#659894" stroke-width="1.51"/><path d="M1045,732L1182,831L1127,702Z" fill="#537e7b" stroke="#537e7b" stroke-width="1.51"/><path d="M1124,569L1102,475L996,582Z" fill="#78a6a3" stroke="#78a6a3" stroke-width="1.51"/><path d="M936,653L791,602L937,679Z" fill="#63948f" stroke="#63948f" stroke-width="1.51"/><path d="M937,679L748,706L977,818Z" fill="#5d9793" stroke="#5d9793" stroke-width="1.51"/><path d="M904,446L791,602L936,653Z" fill="#74b2ac" stroke="#74b2ac" stroke-width="1.51"/><path d="M904,446L936,653L996,582Z" fill="#81b8b5" stroke="#81b8b5" stroke-width="1.51"/><path d="M1102,475L1040,427L996,582Z" fill="#70a9a4" stroke="#70a9a4" stroke-width="1.51"/><path d="M977,818L1182,831L1045,732Z" fill="#5b9390" stroke="#5b9390" stroke-width="1.51"/><path d="M1127,702L1277,631L1124,569Z" fill="#526e6b" stroke="#526e6b" stroke-width="1.51"/><path d="M1040,427L904,446L996,582Z" fill="#76b7b2" stroke="#76b7b2" stroke-width="1.51"/><path d="M1314,765L1277,631L1127,702Z" fill="#476462" stroke="#476462" stroke-width="1.51"/><path d="M1124,569L1206,393L1102,475Z" fill="#5d928d" stroke="#5d928d" stroke-width="1.51"/><path d="M791,602L748,706L937,679Z" fill="#548a84" stroke="#548a84" stroke-width="1.51"/><path d="M1040,427L971,345L904,446Z" fill="#5fb1a9" stroke="#5fb1a9" stroke-width="1.51"/><path d="M739,454L675,647L791,602Z" fill="#5caaa2" stroke="#5caaa2" stroke-width="1.51"/><path d="M1191,232L971,345L1040,427Z" fill="#739e99" stroke="#739e99" stroke-width="1.51"/><path d="M1206,393L1040,427L1102,475Z" fill="#53938d" stroke="#53938d" stroke-width="1.51"/><path d="M1182,831L1314,765L1127,702Z" fill="#48716e" stroke="#48716e" stroke-width="1.51"/><path d="M748,706L839,928L977,818Z" fill="#56a9a4" stroke="#56a9a4" stroke-width="1.51"/><path d="M977,818L1089,1034L1182,831Z" fill="#529791" stroke="#529791" stroke-width="1.51"/><path d="M1327,447L1206,393L1124,569Z" fill="#538882" stroke="#538882" stroke-width="1.51"/><path d="M791,602L675,647L748,706Z" fill="#488982" stroke="#488982" stroke-width="1.51"/><path d="M650,925L823,943L839,928Z" fill="#38a89d" stroke="#38a89d" stroke-width="1.51"/><path d="M739,454L791,602L904,446Z" fill="#64b5ad" stroke="#64b5ad" stroke-width="1.51"/><path d="M839,928L1089,1034L977,818Z" fill="#60b1aa" stroke="#60b1aa" stroke-width="1.51"/><path d="M738,991L823,943L650,925Z" fill="#36a99e" stroke="#36a99e" stroke-width="1.51"/><path d="M971,345L939,324L904,446Z" fill="#6eb4ad" stroke="#6eb4ad" stroke-width="1.51"/><path d="M1059,140L939,324L971,345Z" fill="#99b2b0" stroke="#99b2b0" stroke-width="1.51"/><path d="M712,356L739,454L904,446Z" fill="#41aba1" stroke="#41aba1" stroke-width="1.51"/><path d="M1277,631L1327,447L1124,569Z" fill="#658e8c" stroke="#658e8c" stroke-width="1.51"/><path d="M1314,765L1384,642L1277,631Z" fill="#486c69" stroke="#486c69" stroke-width="1.51"/><path d="M675,647L647,714L748,706Z" fill="#48837d" stroke="#48837d" stroke-width="1.51"/><path d="M538,747L647,714L504,582Z" fill="#688480" stroke="#688480" stroke-width="1.51"/><path d="M1384,642L1327,447L1277,631Z" fill="#60918f" stroke="#60918f" stroke-width="1.51"/><path d="M823,943L828,988L839,928Z" fill="#4cafa4" stroke="#4cafa4" stroke-width="1.51"/><path d="M738,991L828,988L823,943Z" fill="#57b2a7" stroke="#57b2a7" stroke-width="1.51"/><path d="M828,988L1089,1034L839,928Z" fill="#74bbb4" stroke="#74bbb4" stroke-width="1.51"/><path d="M1182,831L1338,877L1314,765Z" fill="#488683" stroke="#488683" stroke-width="1.51"/><path d="M1245,1031L1338,877L1182,831Z" fill="#418680" stroke="#418680" stroke-width="1.51"/><path d="M1314,765L1435,687L1384,642Z" fill="#497775" stroke="#497775" stroke-width="1.51"/><path d="M1089,1034L1245,1031L1182,831Z" fill="#518a83" stroke="#518a83" stroke-width="1.51"/><path d="M1107,1171L1100,1054L986,1192Z" fill="#a7bdba" stroke="#a7bdba" stroke-width="1.51"/><path d="M1384,642L1409,427L1327,447Z" fill="#5fa19e" stroke="#5fa19e" stroke-width="1.51"/><path d="M1506,777L1435,687L1314,765Z" fill="#498886" stroke="#498886" stroke-width="1.51"/><path d="M739,454L576,490L675,647Z" fill="#6db4ad" stroke="#6db4ad" stroke-width="1.51"/><path d="M939,324L712,356L904,446Z" fill="#5cafa6" stroke="#5cafa6" stroke-width="1.51"/><path d="M1327,447L1272,313L1206,393Z" fill="#4a8983" stroke="#4a8983" stroke-width="1.51"/><path d="M1206,393L1191,232L1040,427Z" fill="#618c87" stroke="#618c87" stroke-width="1.51"/><path d="M1435,357L1272,313L1327,447Z" fill="#50958f" stroke="#50958f" stroke-width="1.51"/><path d="M946,1196L986,1192L1089,1034Z" fill="#b0cac8" stroke="#b0cac8" stroke-width="1.51"/><path d="M650,925L839,928L748,706Z" fill="#3ba49d" stroke="#3ba49d" stroke-width="1.51"/><path d="M1100,1054L1245,1031L1089,1034Z" fill="#83a19d" stroke="#83a19d" stroke-width="1.51"/><path d="M647,714L650,925L748,706Z" fill="#4a9b94" stroke="#4a9b94" stroke-width="1.51"/><path d="M1577,582L1409,427L1384,642Z" fill="#66aba8" stroke="#66aba8" stroke-width="1.51"/><path d="M1272,313L1191,232L1206,393Z" fill="#698582" stroke="#698582" stroke-width="1.51"/><path d="M939,324L726,243L712,356Z" fill="#74aea7" stroke="#74aea7" stroke-width="1.51"/><path d="M1336,253L1191,232L1272,313Z" fill="#798c8a" stroke="#798c8a" stroke-width="1.51"/><path d="M1377,1047L1410,906L1338,877Z" fill="#3c9891" stroke="#3c9891" stroke-width="1.51"/><path d="M1338,877L1506,777L1314,765Z" fill="#489392" stroke="#489392" stroke-width="1.51"/><path d="M634,381L576,490L739,454Z" fill="#55aba2" stroke="#55aba2" stroke-width="1.51"/><path d="M647,714L538,747L650,925Z" fill="#5fa09b" stroke="#5fa09b" stroke-width="1.51"/><path d="M712,356L634,381L739,454Z" fill="#3ba79b" stroke="#3ba79b" stroke-width="1.51"/><path d="M504,582L647,714L675,647Z" fill="#638c87" stroke="#638c87" stroke-width="1.51"/><path d="M650,925L644,1000L738,991Z" fill="#54ada3" stroke="#54ada3" stroke-width="1.51"/><path d="M738,991L771,1115L828,988Z" fill="#7dbfb7" stroke="#7dbfb7" stroke-width="1.51"/><path d="M504,950L644,1000L650,925Z" fill="#62aca2" stroke="#62aca2" stroke-width="1.51"/><path d="M1410,906L1506,777L1338,877Z" fill="#449a97" stroke="#449a97" stroke-width="1.51"/><path d="M1435,687L1577,582L1384,642Z" fill="#508987" stroke="#508987" stroke-width="1.51"/><path d="M828,164L726,243L939,324Z" fill="#7daba5" stroke="#7daba5" stroke-width="1.51"/><path d="M712,356L687,221L634,381Z" fill="#6eaba2" stroke="#6eaba2" stroke-width="1.51"/><path d="M576,490L504,582L675,647Z" fill="#7da9a5" stroke="#7da9a5" stroke-width="1.51"/><path d="M482,523L504,582L576,490Z" fill="#92b7b3" stroke="#92b7b3" stroke-width="1.51"/><path d="M1409,427L1435,357L1327,447Z" fill="#3e9a93" stroke="#3e9a93" stroke-width="1.51"/><path d="M1544,367L1435,357L1409,427Z" fill="#48a29c" stroke="#48a29c" stroke-width="1.51"/><path d="M625,1078L771,1115L738,991Z" fill="#89c3bb" stroke="#89c3bb" stroke-width="1.51"/><path d="M1100,1054L1107,1171L1245,1031Z" fill="#99a9a7" stroke="#99a9a7" stroke-width="1.51"/><path d="M1435,357L1336,253L1272,313Z" fill="#6e9794" stroke="#6e9794" stroke-width="1.51"/><path d="M986,1192L1100,1054L1089,1034Z" fill="#a7bebc" stroke="#a7bebc" stroke-width="1.51"/><path d="M1245,1031L1377,1047L1338,877Z" fill="#5b9994" stroke="#5b9994" stroke-width="1.51"/><path d="M1191,232L1059,140L971,345Z" fill="#7d9794" stroke="#7d9794" stroke-width="1.51"/><path d="M1182,84L1059,140L1191,232Z" fill="#49736e" stroke="#49736e" stroke-width="1.51"/><path d="M1059,140L828,164L939,324Z" fill="#7da8a4" stroke="#7da8a4" stroke-width="1.51"/><path d="M1351,1083L1377,1047L1245,1031Z" fill="#86aaa7" stroke="#86aaa7" stroke-width="1.51"/><path d="M1410,906L1557,942L1506,777Z" fill="#3ea09b" stroke="#3ea09b" stroke-width="1.51"/><path d="M946,1196L1089,1034L828,988Z" fill="#b2d2d0" stroke="#b2d2d0" stroke-width="1.51"/><path d="M1364,1170L1351,1083L1308,1215Z" fill="#96b3b2" stroke="#96b3b2" stroke-width="1.51"/><path d="M771,1115L946,1196L828,988Z" fill="#a6cfca" stroke="#a6cfca" stroke-width="1.51"/><path d="M828,164L687,221L726,243Z" fill="#5e9d95" stroke="#5e9d95" stroke-width="1.51"/><path d="M726,243L687,221L712,356Z" fill="#7baca4" stroke="#7baca4" stroke-width="1.51"/><path d="M515,379L482,523L576,490Z" fill="#7fb0aa" stroke="#7fb0aa" stroke-width="1.51"/><path d="M454,879L504,950L538,747Z" fill="#7aa8a4" stroke="#7aa8a4" stroke-width="1.51"/><path d="M515,379L576,490L634,381Z" fill="#64aaa2" stroke="#64aaa2" stroke-width="1.51"/><path d="M1506,777L1577,582L1435,687Z" fill="#477d7a" stroke="#477d7a" stroke-width="1.51"/><path d="M644,1000L625,1078L738,991Z" fill="#7bbab2" stroke="#7bbab2" stroke-width="1.51"/><path d="M771,1115L929,1258L946,1196Z" fill="#abd0cd" stroke="#abd0cd" stroke-width="1.51"/><path d="M504,950L625,1078L644,1000Z" fill="#86b9b1" stroke="#86b9b1" stroke-width="1.51"/><path d="M687,221L515,379L634,381Z" fill="#7baca4" stroke="#7baca4" stroke-width="1.51"/><path d="M454,879L538,747L404,875Z" fill="#7ba5a2" stroke="#7ba5a2" stroke-width="1.51"/><path d="M538,747L504,950L650,925Z" fill="#68a7a1" stroke="#68a7a1" stroke-width="1.51"/><path d="M1059,140L1003,70L828,164Z" fill="#599792" stroke="#599792" stroke-width="1.51"/><path d="M828,164L735,22L687,221Z" fill="#318a81" stroke="#318a81" stroke-width="1.51"/><path d="M1182,84L1003,70L1059,140Z" fill="#4b847e" stroke="#4b847e" stroke-width="1.51"/><path d="M1358,102L1182,84L1191,232Z" fill="#3c6b65" stroke="#3c6b65" stroke-width="1.51"/><path d="M1358,102L1191,232L1336,253Z" fill="#597f7b" stroke="#597f7b" stroke-width="1.51"/><path d="M372,664L538,747L504,582Z" fill="#798784" stroke="#798784" stroke-width="1.51"/><path d="M1623,457L1544,367L1409,427Z" fill="#39a49c" stroke="#39a49c" stroke-width="1.51"/><path d="M1435,357L1428,198L1336,253Z" fill="#7fa09f" stroke="#7fa09f" stroke-width="1.51"/><path d="M946,1196L929,1258L986,1192Z" fill="#b6d4d2" stroke="#b6d4d2" stroke-width="1.51"/><path d="M986,1192L1031,1305L1107,1171Z" fill="#aac2c0" stroke="#aac2c0" stroke-width="1.51"/><path d="M1308,1215L1351,1083L1245,1031Z" fill="#95adac" stroke="#95adac" stroke-width="1.51"/><path d="M749,1297L929,1258L771,1115Z" fill="#a2cdc7" stroke="#a2cdc7" stroke-width="1.51"/><path d="M1725,793L1705,586L1577,582Z" fill="#458780" stroke="#458780" stroke-width="1.51"/><path d="M1377,1047L1557,942L1410,906Z" fill="#4ba6a0" stroke="#4ba6a0" stroke-width="1.51"/><path d="M1561,1061L1557,942L1377,1047Z" fill="#6fb3af" stroke="#6fb3af" stroke-width="1.51"/><path d="M1544,367L1428,198L1435,357Z" fill="#70a5a2" stroke="#70a5a2" stroke-width="1.51"/><path d="M1351,1083L1364,1170L1377,1047Z" fill="#97b6b5" stroke="#97b6b5" stroke-width="1.51"/><path d="M1308,1215L1245,1031L1107,1171Z" fill="#92a19f" stroke="#92a19f" stroke-width="1.51"/><path d="M1003,70L871,49L828,164Z" fill="#519c94" stroke="#519c94" stroke-width="1.51"/><path d="M397,264L376,429L515,379Z" fill="#7fa6a0" stroke="#7fa6a0" stroke-width="1.51"/><path d="M912,-109L871,49L1003,70Z" fill="#5ab2a9" stroke="#5ab2a9" stroke-width="1.51"/><path d="M1125,1309L1308,1215L1107,1171Z" fill="#94a3a1" stroke="#94a3a1" stroke-width="1.51"/><path d="M1525,37L1400,131L1428,198Z" fill="#378783" stroke="#378783" stroke-width="1.51"/><path d="M1577,582L1623,457L1409,427Z" fill="#54aba5" stroke="#54aba5" stroke-width="1.51"/><path d="M1705,586L1623,457L1577,582Z" fill="#61b2ab" stroke="#61b2ab" stroke-width="1.51"/><path d="M625,1078L689,1213L771,1115Z" fill="#99c8c1" stroke="#99c8c1" stroke-width="1.51"/><path d="M523,1199L689,1213L625,1078Z" fill="#acc9c5" stroke="#acc9c5" stroke-width="1.51"/><path d="M523,1199L625,1078L419,1136Z" fill="#c0cbc9" stroke="#c0cbc9" stroke-width="1.51"/><path d="M482,523L372,664L504,582Z" fill="#89a19e" stroke="#89a19e" stroke-width="1.51"/><path d="M376,429L372,664L482,523Z" fill="#8aaeab" stroke="#8aaeab" stroke-width="1.51"/><path d="M929,1258L1031,1305L986,1192Z" fill="#b4cfce" stroke="#b4cfce" stroke-width="1.51"/><path d="M749,1297L1031,1305L929,1258Z" fill="#afd2ce" stroke="#afd2ce" stroke-width="1.51"/><path d="M372,664L404,875L538,747Z" fill="#739492" stroke="#739492" stroke-width="1.51"/><path d="M454,879L373,957L504,950Z" fill="#70a69e" stroke="#70a69e" stroke-width="1.51"/><path d="M1428,198L1400,131L1336,253Z" fill="#598c88" stroke="#598c88" stroke-width="1.51"/><path d="M1609,145L1428,198L1544,367Z" fill="#6ea09b" stroke="#6ea09b" stroke-width="1.51"/><path d="M1400,131L1358,102L1336,253Z" fill="#48807c" stroke="#48807c" stroke-width="1.51"/><path d="M912,-109L735,22L871,49Z" fill="#47ada3" stroke="#47ada3" stroke-width="1.51"/><path d="M1031,1305L1125,1309L1107,1171Z" fill="#a3b7b5" stroke="#a3b7b5" stroke-width="1.51"/><path d="M1577,1098L1561,1061L1364,1170Z" fill="#98c3c1" stroke="#98c3c1" stroke-width="1.51"/><path d="M1364,1170L1561,1061L1377,1047Z" fill="#99c1c0" stroke="#99c1c0" stroke-width="1.51"/><path d="M1725,793L1577,582L1506,777Z" fill="#428883" stroke="#428883" stroke-width="1.51"/><path d="M515,379L376,429L482,523Z" fill="#7eaca6" stroke="#7eaca6" stroke-width="1.51"/><path d="M466,205L515,379L687,221Z" fill="#9eaeab" stroke="#9eaeab" stroke-width="1.51"/><path d="M689,1213L749,1297L771,1115Z" fill="#95c8c1" stroke="#95c8c1" stroke-width="1.51"/><path d="M1031,1305L324,1336L1125,1309Z" fill="#a3cdc9" stroke="#a3cdc9" stroke-width="1.51"/><path d="M523,1199L749,1297L689,1213Z" fill="#a2c9c3" stroke="#a2c9c3" stroke-width="1.51"/><path d="M1725,793L1506,777L1557,942Z" fill="#3ca19b" stroke="#3ca19b" stroke-width="1.51"/><path d="M871,49L735,22L828,164Z" fill="#409a91" stroke="#409a91" stroke-width="1.51"/><path d="M912,-109L1003,70L1001,-131Z" fill="#5eb1a9" stroke="#5eb1a9" stroke-width="1.51"/><path d="M1561,1061L1639,985L1557,942Z" fill="#5db0a8" stroke="#5db0a8" stroke-width="1.51"/><path d="M404,875L373,957L454,879Z" fill="#67a099" stroke="#67a099" stroke-width="1.51"/><path d="M278,965L373,957L404,875Z" fill="#549990" stroke="#549990" stroke-width="1.51"/><path d="M454,87L466,205L687,221Z" fill="#749691" stroke="#749691" stroke-width="1.51"/><path d="M1561,1061L1577,1098L1639,985Z" fill="#81beb7" stroke="#81beb7" stroke-width="1.51"/><path d="M1496,1253L1577,1098L1364,1170Z" fill="#99c3c1" stroke="#99c3c1" stroke-width="1.51"/><path d="M1496,1253L1364,1170L1308,1215Z" fill="#98bab9" stroke="#98bab9" stroke-width="1.51"/><path d="M1639,985L1725,793L1557,942Z" fill="#30a49a" stroke="#30a49a" stroke-width="1.51"/><path d="M735,22L678,15L687,221Z" fill="#32948a" stroke="#32948a" stroke-width="1.51"/><path d="M372,664L295,772L404,875Z" fill="#5d8b87" stroke="#5d8b87" stroke-width="1.51"/><path d="M200,755L295,772L159,654Z" fill="#3a736d" stroke="#3a736d" stroke-width="1.51"/><path d="M419,1136L625,1078L504,950Z" fill="#b3c5c2" stroke="#b3c5c2" stroke-width="1.51"/><path d="M1623,457L1672,311L1544,367Z" fill="#42a69c" stroke="#42a69c" stroke-width="1.51"/><path d="M1705,586L1733,512L1623,457Z" fill="#5bb3aa" stroke="#5bb3aa" stroke-width="1.51"/><path d="M1797,663L1733,512L1705,586Z" fill="#6eaaa3" stroke="#6eaaa3" stroke-width="1.51"/><path d="M466,205L397,264L515,379Z" fill="#a5abaa" stroke="#a5abaa" stroke-width="1.51"/><path d="M376,429L185,534L372,664Z" fill="#6e9f9b" stroke="#6e9f9b" stroke-width="1.51"/><path d="M339,67L397,264L466,205Z" fill="#6f8d89" stroke="#6f8d89" stroke-width="1.51"/><path d="M1733,512L1672,311L1623,457Z" fill="#33a89d" stroke="#33a89d" stroke-width="1.51"/><path d="M1272,-90L1182,84L1358,102Z" fill="#3e827b" stroke="#3e827b" stroke-width="1.51"/><path d="M1725,793L1797,663L1705,586Z" fill="#578983" stroke="#578983" stroke-width="1.51"/><path d="M1639,985L1756,810L1725,793Z" fill="#42a79e" stroke="#42a79e" stroke-width="1.51"/><path d="M1852,702L1756,810L1867,872Z" fill="#78b1ad" stroke="#78b1ad" stroke-width="1.51"/><path d="M373,957L419,1136L504,950Z" fill="#96b5b0" stroke="#96b5b0" stroke-width="1.51"/><path d="M278,965L419,1136L373,957Z" fill="#84aba6" stroke="#84aba6" stroke-width="1.51"/><path d="M1798,1041L1756,810L1639,985Z" fill="#47ada2" stroke="#47ada2" stroke-width="1.51"/><path d="M1125,1309L1496,1253L1308,1215Z" fill="#95aead" stroke="#95aead" stroke-width="1.51"/><path d="M1111,-112L1003,70L1182,84Z" fill="#4d928a" stroke="#4d928a" stroke-width="1.51"/><path d="M735,22L659,-59L678,15Z" fill="#36a79b" stroke="#36a79b" stroke-width="1.51"/><path d="M1272,-90L1111,-112L1182,84Z" fill="#41827a" stroke="#41827a" stroke-width="1.51"/><path d="M1272,-90L1442,-112L1353,-152Z" fill="#3d958e" stroke="#3d958e" stroke-width="1.51"/><path d="M1756,810L1797,663L1725,793Z" fill="#5f9e99" stroke="#5f9e99" stroke-width="1.51"/><path d="M1766,186L1722,168L1672,311Z" fill="#6fa49d" stroke="#6fa49d" stroke-width="1.51"/><path d="M1672,311L1609,145L1544,367Z" fill="#7aaaa4" stroke="#7aaaa4" stroke-width="1.51"/><path d="M397,264L288,355L376,429Z" fill="#6e9b95" stroke="#6e9b95" stroke-width="1.51"/><path d="M251,312L288,355L397,264Z" fill="#729792" stroke="#729792" stroke-width="1.51"/><path d="M1111,-112L1001,-131L1003,70Z" fill="#55a29a" stroke="#55a29a" stroke-width="1.51"/><path d="M1144,-183L978,-174L1001,-131Z" fill="#55a29a" stroke="#55a29a" stroke-width="1.51"/><path d="M1525,37L1358,102L1400,131Z" fill="#398c87" stroke="#398c87" stroke-width="1.51"/><path d="M194,885L278,965L295,772Z" fill="#378983" stroke="#378983" stroke-width="1.51"/><path d="M295,772L278,965L404,875Z" fill="#50928d" stroke="#50928d" stroke-width="1.51"/><path d="M479,-27L454,87L678,15Z" fill="#69a59d" stroke="#69a59d" stroke-width="1.51"/><path d="M678,15L454,87L687,221Z" fill="#52918a" stroke="#52918a" stroke-width="1.51"/><path d="M719,-123L659,-59L735,22Z" fill="#2fa79a" stroke="#2fa79a" stroke-width="1.51"/><path d="M719,-123L735,22L912,-109Z" fill="#3baa9f" stroke="#3baa9f" stroke-width="1.51"/><path d="M1609,145L1525,37L1428,198Z" fill="#338782" stroke="#338782" stroke-width="1.51"/><path d="M1001,-131L932,-142L912,-109Z" fill="#5eb3ab" stroke="#5eb3ab" stroke-width="1.51"/><path d="M978,-174L932,-142L1001,-131Z" fill="#5fb1a9" stroke="#5fb1a9" stroke-width="1.51"/><path d="M324,1336L448,1232L419,1136Z" fill="#b3bfbe" stroke="#b3bfbe" stroke-width="1.51"/><path d="M419,1136L448,1232L523,1199Z" fill="#c5c9c9" stroke="#c5c9c9" stroke-width="1.51"/><path d="M523,1199L448,1232L749,1297Z" fill="#b5cac7" stroke="#b5cac7" stroke-width="1.51"/><path d="M159,654L295,772L372,664Z" fill="#446d68" stroke="#446d68" stroke-width="1.51"/><path d="M753,-191L719,-123L912,-109Z" fill="#3dab9f" stroke="#3dab9f" stroke-width="1.51"/><path d="M1144,-183L1001,-131L1111,-112Z" fill="#4f9890" stroke="#4f9890" stroke-width="1.51"/><path d="M659,-59L479,-27L678,15Z" fill="#57a99f" stroke="#57a99f" stroke-width="1.51"/><path d="M753,-191L912,-109L932,-142Z" fill="#4dafa5" stroke="#4dafa5" stroke-width="1.51"/><path d="M1912,478L1873,445L1733,512Z" fill="#8bc4bd" stroke="#8bc4bd" stroke-width="1.51"/><path d="M1672,311L1722,168L1609,145Z" fill="#599b93" stroke="#599b93" stroke-width="1.51"/><path d="M1756,810L1852,702L1797,663Z" fill="#6d9c97" stroke="#6d9c97" stroke-width="1.51"/><path d="M1720,1122L1639,985L1577,1098Z" fill="#8cc4bd" stroke="#8cc4bd" stroke-width="1.51"/><path d="M288,355L185,534L376,429Z" fill="#47938b" stroke="#47938b" stroke-width="1.51"/><path d="M275,120L251,312L397,264Z" fill="#6f8e8a" stroke="#6f8e8a" stroke-width="1.51"/><path d="M125,399L185,534L288,355Z" fill="#349087" stroke="#349087" stroke-width="1.51"/><path d="M1691,1254L1720,1122L1577,1098Z" fill="#93c7c0" stroke="#93c7c0" stroke-width="1.51"/><path d="M200,755L194,885L295,772Z" fill="#378480" stroke="#378480" stroke-width="1.51"/><path d="M278,965L190,1100L419,1136Z" fill="#90aea9" stroke="#90aea9" stroke-width="1.51"/><path d="M50,747L194,885L200,755Z" fill="#398b86" stroke="#398b86" stroke-width="1.51"/><path d="M1272,-90L1144,-183L1111,-112Z" fill="#43847d" stroke="#43847d" stroke-width="1.51"/><path d="M1353,-152L1144,-183L1272,-90Z" fill="#3f8780" stroke="#3f8780" stroke-width="1.51"/><path d="M185,534L159,654L372,664Z" fill="#477973" stroke="#477973" stroke-width="1.51"/><path d="M1873,445L1672,311L1733,512Z" fill="#5ab3a9" stroke="#5ab3a9" stroke-width="1.51"/><path d="M1652,-72L1617,-72L1525,37Z" fill="#2ea59a" stroke="#2ea59a" stroke-width="1.51"/><path d="M619,-157L479,-27L659,-59Z" fill="#5da9a0" stroke="#5da9a0" stroke-width="1.51"/><path d="M454,87L339,67L466,205Z" fill="#608984" stroke="#608984" stroke-width="1.51"/><path d="M1720,1122L1798,1041L1639,985Z" fill="#8dc5be" stroke="#8dc5be" stroke-width="1.51"/><path d="M1798,1041L1867,872L1756,810Z" fill="#6bb6ae" stroke="#6bb6ae" stroke-width="1.51"/><path d="M1442,-112L1358,102L1525,37Z" fill="#399f99" stroke="#399f99" stroke-width="1.51"/><path d="M1442,-112L1272,-90L1358,102Z" fill="#3d958e" stroke="#3d958e" stroke-width="1.51"/><path d="M1448,-134L1442,-112L1571,-163Z" fill="#36a29b" stroke="#36a29b" stroke-width="1.51"/><path d="M1496,1253L1691,1254L1577,1098Z" fill="#95c5c0" stroke="#95c5c0" stroke-width="1.51"/><path d="M1720,1122L1891,1175L1798,1041Z" fill="#bdd8d4" stroke="#bdd8d4" stroke-width="1.51"/><path d="M1125,1309L1588,1329L1496,1253Z" fill="#98bcbb" stroke="#98bcbb" stroke-width="1.51"/><path d="M324,1336L1588,1329L1125,1309Z" fill="#afc8c6" stroke="#afc8c6" stroke-width="1.51"/><path d="M1912,478L1733,512L1797,663Z" fill="#90c1bd" stroke="#90c1bd" stroke-width="1.51"/><path d="M1912,478L1797,663L1958,647Z" fill="#9dbab7" stroke="#9dbab7" stroke-width="1.51"/><path d="M1858,301L1766,186L1672,311Z" fill="#94b6b1" stroke="#94b6b1" stroke-width="1.51"/><path d="M1617,-72L1442,-112L1525,37Z" fill="#33a39b" stroke="#33a39b" stroke-width="1.51"/><path d="M719,-123L619,-157L659,-59Z" fill="#41a89c" stroke="#41a89c" stroke-width="1.51"/><path d="M978,-174L753,-191L932,-142Z" fill="#52b0a6" stroke="#52b0a6" stroke-width="1.51"/><path d="M1144,-183L753,-191L978,-174Z" fill="#5fb4ac" stroke="#5fb4ac" stroke-width="1.51"/><path d="M417,-60L339,67L454,87Z" fill="#619992" stroke="#619992" stroke-width="1.51"/><path d="M1588,1329L1691,1254L1496,1253Z" fill="#95c5c0" stroke="#95c5c0" stroke-width="1.51"/><path d="M1752,93L1609,145L1722,168Z" fill="#318b81" stroke="#318b81" stroke-width="1.51"/><path d="M1442,-112L1448,-134L1353,-152Z" fill="#3b9e96" stroke="#3b9e96" stroke-width="1.51"/><path d="M479,-27L417,-60L454,87Z" fill="#71a79f" stroke="#71a79f" stroke-width="1.51"/><path d="M753,-191L619,-157L719,-123Z" fill="#33a79b" stroke="#33a79b" stroke-width="1.51"/><path d="M1958,647L1797,663L1852,702Z" fill="#829996" stroke="#829996" stroke-width="1.51"/><path d="M1873,445L1858,301L1672,311Z" fill="#80b9b1" stroke="#80b9b1" stroke-width="1.51"/><path d="M339,67L275,120L397,264Z" fill="#507e78" stroke="#507e78" stroke-width="1.51"/><path d="M74,445L100,549L185,534Z" fill="#53a29b" stroke="#53a29b" stroke-width="1.51"/><path d="M1933,284L1858,301L1873,445Z" fill="#a2c5c0" stroke="#a2c5c0" stroke-width="1.51"/><path d="M185,534L100,549L159,654Z" fill="#53928c" stroke="#53928c" stroke-width="1.51"/><path d="M159,654L50,747L200,755Z" fill="#3c7a74" stroke="#3c7a74" stroke-width="1.51"/><path d="M125,399L288,355L251,312Z" fill="#498d85" stroke="#498d85" stroke-width="1.51"/><path d="M135,243L125,399L251,312Z" fill="#5e958e" stroke="#5e958e" stroke-width="1.51"/><path d="M1823,31L1752,93L1938,140Z" fill="#6fa8a1" stroke="#6fa8a1" stroke-width="1.51"/><path d="M1766,186L1752,93L1722,168Z" fill="#51968d" stroke="#51968d" stroke-width="1.51"/><path d="M538,-225L417,-60L479,-27Z" fill="#79aba4" stroke="#79aba4" stroke-width="1.51"/><path d="M150,27L229,140L275,120Z" fill="#297770" stroke="#297770" stroke-width="1.51"/><path d="M90,1008L190,1100L278,965Z" fill="#68a29b" stroke="#68a29b" stroke-width="1.51"/><path d="M90,1008L278,965L194,885Z" fill="#319187" stroke="#319187" stroke-width="1.51"/><path d="M275,120L229,140L251,312Z" fill="#4b7c76" stroke="#4b7c76" stroke-width="1.51"/><path d="M150,27L275,120L339,67Z" fill="#2f7c74" stroke="#2f7c74" stroke-width="1.51"/><path d="M1960,772L1958,647L1852,702Z" fill="#93a6a5" stroke="#93a6a5" stroke-width="1.51"/><path d="M1652,-72L1525,37L1609,145Z" fill="#2f9c93" stroke="#2f9c93" stroke-width="1.51"/><path d="M1966,856L1867,872L1984,1035Z" fill="#94c6c0" stroke="#94c6c0" stroke-width="1.51"/><path d="M1966,856L1960,772L1867,872Z" fill="#99c3c1" stroke="#99c3c1" stroke-width="1.51"/><path d="M1867,872L1960,772L1852,702Z" fill="#8fb7b5" stroke="#8fb7b5" stroke-width="1.51"/><path d="M100,549L50,747L159,654Z" fill="#437c76" stroke="#437c76" stroke-width="1.51"/><path d="M125,399L74,445L185,534Z" fill="#419c93" stroke="#419c93" stroke-width="1.51"/><path d="M-93,364L74,445L125,399Z" fill="#29a196" stroke="#29a196" stroke-width="1.51"/><path d="M181,1284L324,1336L419,1136Z" fill="#9ab3af" stroke="#9ab3af" stroke-width="1.51"/><path d="M448,1232L324,1336L749,1297Z" fill="#c4cbca" stroke="#c4cbca" stroke-width="1.51"/><path d="M749,1297L324,1336L1031,1305Z" fill="#97c8c1" stroke="#97c8c1" stroke-width="1.51"/><path d="M-12,758L50,747L-83,619Z" fill="#3f8880" stroke="#3f8880" stroke-width="1.51"/><path d="M1752,93L1652,-72L1609,145Z" fill="#289a8f" stroke="#289a8f" stroke-width="1.51"/><path d="M1617,-72L1571,-163L1442,-112Z" fill="#32a39b" stroke="#32a39b" stroke-width="1.51"/><path d="M1984,1035L1867,872L1798,1041Z" fill="#9dccc5" stroke="#9dccc5" stroke-width="1.51"/><path d="M2075,739L2072,546L1958,647Z" fill="#9aaaa8" stroke="#9aaaa8" stroke-width="1.51"/><path d="M229,140L135,243L251,312Z" fill="#5e8983" stroke="#5e8983" stroke-width="1.51"/><path d="M190,1100L181,1284L419,1136Z" fill="#8eaca8" stroke="#8eaca8" stroke-width="1.51"/><path d="M40,889L90,1008L194,885Z" fill="#2b988e" stroke="#2b988e" stroke-width="1.51"/><path d="M1858,301L1938,140L1766,186Z" fill="#96b3af" stroke="#96b3af" stroke-width="1.51"/><path d="M1752,93L1823,31L1652,-72Z" fill="#4baaa0" stroke="#4baaa0" stroke-width="1.51"/><path d="M1912,478L1933,284L1873,445Z" fill="#8fc5be" stroke="#8fc5be" stroke-width="1.51"/><path d="M2057,307L1933,284L1912,478Z" fill="#a7c9c4" stroke="#a7c9c4" stroke-width="1.51"/><path d="M1663,-173L1571,-163L1617,-72Z" fill="#2ca59a" stroke="#2ca59a" stroke-width="1.51"/><path d="M1448,-134L1571,-163L1353,-152Z" fill="#38a29b" stroke="#38a29b" stroke-width="1.51"/><path d="M1353,-152L1869,-256L1144,-183Z" fill="#38a29b" stroke="#38a29b" stroke-width="1.51"/><path d="M50,747L40,889L194,885Z" fill="#359690" stroke="#359690" stroke-width="1.51"/><path d="M176,-112L150,27L339,67Z" fill="#288b82" stroke="#288b82" stroke-width="1.51"/><path d="M229,140L150,27L135,243Z" fill="#2a756d" stroke="#2a756d" stroke-width="1.51"/><path d="M619,-157L538,-225L479,-27Z" fill="#68aaa1" stroke="#68aaa1" stroke-width="1.51"/><path d="M753,-191L538,-225L619,-157Z" fill="#4ca89d" stroke="#4ca89d" stroke-width="1.51"/><path d="M1144,-183L538,-225L753,-191Z" fill="#41aba1" stroke="#41aba1" stroke-width="1.51"/><path d="M418,-239L538,-225L1869,-256Z" fill="#5cb3aa" stroke="#5cb3aa" stroke-width="1.51"/><path d="M1691,1254L1891,1175L1720,1122Z" fill="#b1d3cf" stroke="#b1d3cf" stroke-width="1.51"/><path d="M1588,1329L1768,1327L1691,1254Z" fill="#93c8c1" stroke="#93c8c1" stroke-width="1.51"/><path d="M1768,1327L1891,1175L1691,1254Z" fill="#b6d6d1" stroke="#b6d6d1" stroke-width="1.51"/><path d="M1938,140L1752,93L1766,186Z" fill="#679d96" stroke="#679d96" stroke-width="1.51"/><path d="M1652,-72L1663,-173L1617,-72Z" fill="#2aa69a" stroke="#2aa69a" stroke-width="1.51"/><path d="M50,747L-12,758L40,889Z" fill="#3a9b95" stroke="#3a9b95" stroke-width="1.51"/><path d="M-83,619L50,747L100,549Z" fill="#488b83" stroke="#488b83" stroke-width="1.51"/><path d="M1891,1175L1984,1035L1798,1041Z" fill="#dbe4e3" stroke="#dbe4e3" stroke-width="1.51"/><path d="M2075,739L1958,647L1960,772Z" fill="#94aaa8" stroke="#94aaa8" stroke-width="1.51"/><path d="M41,1206L181,1284L190,1100Z" fill="#8cb6b0" stroke="#8cb6b0" stroke-width="1.51"/><path d="M150,1344L181,1284L41,1206Z" fill="#8db8b2" stroke="#8db8b2" stroke-width="1.51"/><path d="M190,1100L90,1008L11,1130Z" fill="#8dbbb5" stroke="#8dbbb5" stroke-width="1.51"/><path d="M1890,-26L1663,-173L1652,-72Z" fill="#48aea2" stroke="#48aea2" stroke-width="1.51"/><path d="M1571,-163L1869,-256L1353,-152Z" fill="#2ea59a" stroke="#2ea59a" stroke-width="1.51"/><path d="M1933,284L1938,140L1858,301Z" fill="#b8c2c1" stroke="#b8c2c1" stroke-width="1.51"/><path d="M1823,31L1890,-26L1652,-72Z" fill="#60b5ab" stroke="#60b5ab" stroke-width="1.51"/><path d="M1957,97L1938,140L2057,88Z" fill="#8aafaa" stroke="#8aafaa" stroke-width="1.51"/><path d="M2072,546L1912,478L1958,647Z" fill="#b2cdcc" stroke="#b2cdcc" stroke-width="1.51"/><path d="M2075,739L1960,772L1966,856Z" fill="#98bcbb" stroke="#98bcbb" stroke-width="1.51"/><path d="M2045,924L2075,739L1966,856Z" fill="#98c3c1" stroke="#98c3c1" stroke-width="1.51"/><path d="M1984,1035L2045,924L1966,856Z" fill="#93c7c0" stroke="#93c7c0" stroke-width="1.51"/><path d="M74,445L-40,489L100,549Z" fill="#4fa9a1" stroke="#4fa9a1" stroke-width="1.51"/><path d="M-93,364L-40,489L74,445Z" fill="#36a99d" stroke="#36a99d" stroke-width="1.51"/><path d="M-87,270L-93,364L125,399Z" fill="#54a99e" stroke="#54a99e" stroke-width="1.51"/><path d="M176,-112L339,67L417,-60Z" fill="#45938a" stroke="#45938a" stroke-width="1.51"/><path d="M538,-225L418,-239L417,-60Z" fill="#73a8a1" stroke="#73a8a1" stroke-width="1.51"/><path d="M1869,-256L538,-225L1144,-183Z" fill="#41837b" stroke="#41837b" stroke-width="1.51"/><path d="M1984,1035L2154,987L2045,924Z" fill="#a9d0cb" stroke="#a9d0cb" stroke-width="1.51"/><path d="M1891,1175L2015,1100L1984,1035Z" fill="#e4e8e8" stroke="#e4e8e8" stroke-width="1.51"/><path d="M2083,1103L2015,1100L2121,1221Z" fill="#e4e8e8" stroke="#e4e8e8" stroke-width="1.51"/><path d="M1938,140L1957,97L1823,31Z" fill="#87b1ab" stroke="#87b1ab" stroke-width="1.51"/><path d="M2057,307L1938,140L1933,284Z" fill="#bcc4c3" stroke="#bcc4c3" stroke-width="1.51"/><path d="M-40,489L-83,619L100,549Z" fill="#5dafa7" stroke="#5dafa7" stroke-width="1.51"/><path d="M-100,1026L90,1008L40,889Z" fill="#47ada1" stroke="#47ada1" stroke-width="1.51"/><path d="M2072,546L2057,307L1912,478Z" fill="#9dcbc5" stroke="#9dcbc5" stroke-width="1.51"/><path d="M181,1284L150,1344L324,1336Z" fill="#89aca7" stroke="#89aca7" stroke-width="1.51"/><path d="M324,1336L150,1344L1588,1329Z" fill="#9bc8c2" stroke="#9bc8c2" stroke-width="1.51"/><path d="M11,1130L90,1008L-100,1026Z" fill="#82c1b9" stroke="#82c1b9" stroke-width="1.51"/><path d="M-105,885L40,889L-12,758Z" fill="#36a39b" stroke="#36a39b" stroke-width="1.51"/><path d="M1957,97L1890,-26L1823,31Z" fill="#85bbb5" stroke="#85bbb5" stroke-width="1.51"/><path d="M11,1130L41,1206L190,1100Z" fill="#8fbdb7" stroke="#8fbdb7" stroke-width="1.51"/><path d="M2072,546L2129,518L2057,307Z" fill="#a1cdc7" stroke="#a1cdc7" stroke-width="1.51"/><path d="M2075,739L2129,518L2072,546Z" fill="#a6bcba" stroke="#a6bcba" stroke-width="1.51"/><path d="M2154,987L2129,518L2075,739Z" fill="#96b1b0" stroke="#96b1b0" stroke-width="1.51"/><path d="M2154,987L2075,739L2045,924Z" fill="#96c5c0" stroke="#96c5c0" stroke-width="1.51"/><path d="M-87,270L125,399L135,243Z" fill="#68a39b" stroke="#68a39b" stroke-width="1.51"/><path d="M211,-174L176,-112L417,-60Z" fill="#358d84" stroke="#358d84" stroke-width="1.51"/><path d="M-122,867L-105,885L-12,758Z" fill="#36a29b" stroke="#36a29b" stroke-width="1.51"/><path d="M11,1130L-44,1266L41,1206Z" fill="#92c7c0" stroke="#92c7c0" stroke-width="1.51"/><path d="M-138,785L-122,867L-12,758Z" fill="#3aa099" stroke="#3aa099" stroke-width="1.51"/><path d="M-236,499L-194,658L-83,619Z" fill="#539f97" stroke="#539f97" stroke-width="1.51"/><path d="M-87,270L135,243L-23,25Z" fill="#48938a" stroke="#48938a" stroke-width="1.51"/><path d="M-105,885L-100,1026L40,889Z" fill="#28a69a" stroke="#28a69a" stroke-width="1.51"/><path d="M-138,785L-12,758L-83,619Z" fill="#3e8b83" stroke="#3e8b83" stroke-width="1.51"/><path d="M2015,1100L2083,1103L1984,1035Z" fill="#e4e8e8" stroke="#e4e8e8" stroke-width="1.51"/><path d="M2121,1221L2015,1100L1891,1175Z" fill="#e4e8e8" stroke="#e4e8e8" stroke-width="1.51"/><path d="M-23,25L135,243L150,27Z" fill="#29867d" stroke="#29867d" stroke-width="1.51"/><path d="M418,-239L211,-174L417,-60Z" fill="#529990" stroke="#529990" stroke-width="1.51"/><path d="M-194,658L-138,785L-83,619Z" fill="#3f827b" stroke="#3f827b" stroke-width="1.51"/><path d="M-236,499L-83,619L-40,489Z" fill="#5fb3ab" stroke="#5fb3ab" stroke-width="1.51"/><path d="M108,-106L150,27L176,-112Z" fill="#28948a" stroke="#28948a" stroke-width="1.51"/><path d="M-195,972L-105,885L-122,867Z" fill="#2ca59a" stroke="#2ca59a" stroke-width="1.51"/><path d="M-195,972L-100,1026L-105,885Z" fill="#3aaa9e" stroke="#3aaa9e" stroke-width="1.51"/><path d="M1957,97L2057,88L1890,-26Z" fill="#8ebbb5" stroke="#8ebbb5" stroke-width="1.51"/><path d="M2057,307L2121,235L1938,140Z" fill="#b5c0bf" stroke="#b5c0bf" stroke-width="1.51"/><path d="M2129,518L2121,235L2057,307Z" fill="#a8c9c4" stroke="#a8c9c4" stroke-width="1.51"/><path d="M2083,1103L2154,987L1984,1035Z" fill="#cddfdc" stroke="#cddfdc" stroke-width="1.51"/><path d="M2129,518L2154,987L2121,235Z" fill="#acc4c2" stroke="#acc4c2" stroke-width="1.51"/><path d="M142,-206L108,-106L176,-112Z" fill="#28958a" stroke="#28958a" stroke-width="1.51"/><path d="M2121,235L2057,88L1938,140Z" fill="#91aeaa" stroke="#91aeaa" stroke-width="1.51"/><path d="M1768,1327L1996,1339L1891,1175Z" fill="#d9e4e2" stroke="#d9e4e2" stroke-width="1.51"/><path d="M2083,1103L2121,1221L2154,987Z" fill="#e4e8e8" stroke="#e4e8e8" stroke-width="1.51"/><path d="M1588,1329L1996,1339L1768,1327Z" fill="#b6d6d1" stroke="#b6d6d1" stroke-width="1.51"/><path d="M150,1344L1996,1339L1588,1329Z" fill="#93a5a3" stroke="#93a5a3" stroke-width="1.51"/><path d="M-165,376L-40,489L-93,364Z" fill="#29a79a" stroke="#29a79a" stroke-width="1.51"/><path d="M-138,785L-195,972L-122,867Z" fill="#31a49b" stroke="#31a49b" stroke-width="1.51"/><path d="M-87,270L-165,376L-93,364Z" fill="#59a99f" stroke="#59a99f" stroke-width="1.51"/><path d="M-215,183L-165,376L-87,270Z" fill="#76aba4" stroke="#76aba4" stroke-width="1.51"/><path d="M108,-106L-23,25L150,27Z" fill="#279c91" stroke="#279c91" stroke-width="1.51"/><path d="M-193,1084L11,1130L-100,1026Z" fill="#92c7c0" stroke="#92c7c0" stroke-width="1.51"/><path d="M-193,1232L-44,1266L11,1130Z" fill="#92c7c0" stroke="#92c7c0" stroke-width="1.51"/><path d="M41,1206L-44,1266L150,1344Z" fill="#90c1ba" stroke="#90c1ba" stroke-width="1.51"/><path d="M108,-106L-33,-132L-23,25Z" fill="#27a498" stroke="#27a498" stroke-width="1.51"/><path d="M211,-174L142,-206L176,-112Z" fill="#299186" stroke="#299186" stroke-width="1.51"/><path d="M418,-239L142,-206L211,-174Z" fill="#308c82" stroke="#308c82" stroke-width="1.51"/><path d="M1996,1339L2121,1221L1891,1175Z" fill="#e4e8e8" stroke="#e4e8e8" stroke-width="1.51"/><path d="M-194,658L-195,972L-138,785Z" fill="#3aa099" stroke="#3aa099" stroke-width="1.51"/><path d="M1890,-26L1869,-256L1663,-173Z" fill="#68b8ae" stroke="#68b8ae" stroke-width="1.51"/><path d="M1663,-173L1869,-256L1571,-163Z" fill="#35a99d" stroke="#35a99d" stroke-width="1.51"/><path d="M1936,-253L1869,-256L1890,-26Z" fill="#8bc4bd" stroke="#8bc4bd" stroke-width="1.51"/><path d="M-194,658L-236,499L-195,972Z" fill="#3f8881" stroke="#3f8881" stroke-width="1.51"/><path d="M-165,376L-236,499L-40,489Z" fill="#40aba0" stroke="#40aba0" stroke-width="1.51"/><path d="M-215,183L-236,499L-165,376Z" fill="#50a89e" stroke="#50a89e" stroke-width="1.51"/><path d="M2068,-100L2019,-120L2057,88Z" fill="#92c7c0" stroke="#92c7c0" stroke-width="1.51"/><path d="M2057,88L2019,-120L1890,-26Z" fill="#92c7c0" stroke="#92c7c0" stroke-width="1.51"/><path d="M-195,972L-193,1084L-100,1026Z" fill="#70bbb1" stroke="#70bbb1" stroke-width="1.51"/><path d="M-236,499L-193,1084L-195,972Z" fill="#34a39b" stroke="#34a39b" stroke-width="1.51"/><path d="M2019,-120L1936,-253L1890,-26Z" fill="#92c7c0" stroke="#92c7c0" stroke-width="1.51"/><path d="M2019,-120L2058,-223L1936,-253Z" fill="#92c7c0" stroke="#92c7c0" stroke-width="1.51"/><path d="M2121,235L2068,-100L2057,88Z" fill="#8db7b1" stroke="#8db7b1" stroke-width="1.51"/><path d="M-23,25L-215,183L-87,270Z" fill="#3b8f86" stroke="#3b8f86" stroke-width="1.51"/><path d="M142,-206L-33,-132L108,-106Z" fill="#279d92" stroke="#279d92" stroke-width="1.51"/><path d="M-221,2L-215,183L-23,25Z" fill="#28978c" stroke="#28978c" stroke-width="1.51"/><path d="M-44,1266L-193,1232L150,1344Z" fill="#92c7c0" stroke="#92c7c0" stroke-width="1.51"/><path d="M-193,1084L-193,1232L11,1130Z" fill="#92c7c0" stroke="#92c7c0" stroke-width="1.51"/><path d="M-236,499L-193,1232L-193,1084Z" fill="#27a69a" stroke="#27a69a" stroke-width="1.51"/><path d="M2068,-100L2058,-223L2019,-120Z" fill="#92c7c0" stroke="#92c7c0" stroke-width="1.51"/><path d="M2121,235L2058,-223L2068,-100Z" fill="#92c7c0" stroke="#92c7c0" stroke-width="1.51"/><path d="M-33,-132L-109,-141L-23,25Z" fill="#26a69a" stroke="#26a69a" stroke-width="1.51"/><path d="M142,-206L-109,-141L-33,-132Z" fill="#26a69a" stroke="#26a69a" stroke-width="1.51"/><path d="M-178,-87L-221,2L-23,25Z" fill="#26a69a" stroke="#26a69a" stroke-width="1.51"/><path d="M-215,183L-221,2L-236,499Z" fill="#63a099" stroke="#63a099" stroke-width="1.51"/><path d="M-109,-141L-178,-87L-23,25Z" fill="#26a69a" stroke="#26a69a" stroke-width="1.51"/><path d="M-109,-141L-237,-179L-178,-87Z" fill="#26a69a" stroke="#26a69a" stroke-width="1.51"/><path d="M-178,-87L-237,-179L-221,2Z" fill="#26a69a" stroke="#26a69a" stroke-width="1.51"/><path d="M-221,2L-237,-179L-236,499Z" fill="#298f85" stroke="#298f85" stroke-width="1.51"/><path d="M142,-206L-237,-179L-109,-141Z" fill="#26a69a" stroke="#26a69a" stroke-width="1.51"/><path d="M418,-239L-237,-179L142,-206Z" fill="#28998e" stroke="#28998e" stroke-width="1.51"/></svg>